<mxfile host="Electron" modified="2024-05-13T15:30:56.564Z" agent="Mozilla/5.0 (Windows NT 10.0; Win64; x64) AppleWebKit/537.36 (KHTML, like Gecko) draw.io/21.2.8 Chrome/112.0.5615.165 Electron/24.2.0 Safari/537.36" etag="P6gEMi1PyikmGDuqFolb" version="21.2.8" type="device">
  <diagram name="第 1 页" id="s6cc_0az6zxcbwSCdAaa">
    <mxGraphModel dx="2058" dy="1188" grid="1" gridSize="10" guides="1" tooltips="1" connect="1" arrows="1" fold="1" page="1" pageScale="1" pageWidth="1169" pageHeight="827" math="0" shadow="0">
      <root>
        <mxCell id="0" />
        <mxCell id="1" parent="0" />
        <mxCell id="MHei3bvgVRC7fwBIfpMX-2" value="Element" style="rounded=1;whiteSpace=wrap;html=1;sketch=1;curveFitting=1;jiggle=2;" parent="1" vertex="1">
          <mxGeometry x="440" y="80" width="270" height="90" as="geometry" />
        </mxCell>
        <mxCell id="MHei3bvgVRC7fwBIfpMX-5" value="挂在Windows节点下，同一Windows节点下可以实例化多&lt;span style=&quot;&quot;&gt;个相同的Element&lt;/span&gt;" style="text;html=1;strokeColor=#82b366;fillColor=#d5e8d4;align=center;verticalAlign=middle;whiteSpace=wrap;rounded=0;sketch=1;curveFitting=1;jiggle=2;" parent="1" vertex="1">
          <mxGeometry x="440" y="180" width="270" height="45" as="geometry" />
        </mxCell>
        <mxCell id="PJdw-kfrfu6QBhbZgV0M-2" value="" style="group;sketch=1;curveFitting=1;jiggle=2;" parent="1" vertex="1" connectable="0">
          <mxGeometry x="40" y="80" width="360" height="180" as="geometry" />
        </mxCell>
        <mxCell id="MHei3bvgVRC7fwBIfpMX-1" value="&lt;font style=&quot;font-size: 18px;&quot;&gt;Windows&lt;br&gt;&lt;/font&gt;" style="rounded=0;whiteSpace=wrap;html=1;sketch=1;curveFitting=1;jiggle=2;" parent="PJdw-kfrfu6QBhbZgV0M-2" vertex="1">
          <mxGeometry width="360" height="30" as="geometry" />
        </mxCell>
        <mxCell id="MHei3bvgVRC7fwBIfpMX-6" value="&lt;span style=&quot;color: rgb(0, 0, 0); font-family: Helvetica; font-size: 12px; font-style: normal; font-variant-ligatures: normal; font-variant-caps: normal; font-weight: 400; letter-spacing: normal; orphans: 2; text-indent: 0px; text-transform: none; widows: 2; word-spacing: 0px; -webkit-text-stroke-width: 0px; text-decoration-thickness: initial; text-decoration-style: initial; text-decoration-color: initial; float: none; display: inline !important;&quot;&gt;Windows具有唯一性，同一场景中只会出现一个相同的Windows，&lt;br&gt;是Element的父节点&lt;/span&gt;" style="text;html=1;strokeColor=#82b366;fillColor=#d5e8d4;align=left;verticalAlign=top;whiteSpace=wrap;rounded=0;labelBackgroundColor=none;sketch=1;curveFitting=1;jiggle=2;" parent="PJdw-kfrfu6QBhbZgV0M-2" vertex="1">
          <mxGeometry y="30" width="360" height="150" as="geometry" />
        </mxCell>
        <mxCell id="PJdw-kfrfu6QBhbZgV0M-3" value="" style="group;sketch=1;curveFitting=1;jiggle=2;" parent="1" vertex="1" connectable="0">
          <mxGeometry x="350" y="360" width="360" height="180" as="geometry" />
        </mxCell>
        <mxCell id="PJdw-kfrfu6QBhbZgV0M-4" value="&lt;font style=&quot;font-size: 18px;&quot;&gt;UIController&lt;br&gt;&lt;/font&gt;" style="rounded=0;whiteSpace=wrap;html=1;sketch=1;curveFitting=1;jiggle=2;" parent="PJdw-kfrfu6QBhbZgV0M-3" vertex="1">
          <mxGeometry width="360" height="30" as="geometry" />
        </mxCell>
        <mxCell id="PJdw-kfrfu6QBhbZgV0M-5" value="" style="text;html=1;strokeColor=#82b366;fillColor=#d5e8d4;align=left;verticalAlign=top;whiteSpace=wrap;rounded=0;labelBackgroundColor=none;sketch=1;curveFitting=1;jiggle=2;" parent="PJdw-kfrfu6QBhbZgV0M-3" vertex="1">
          <mxGeometry y="30" width="360" height="150" as="geometry" />
        </mxCell>
        <mxCell id="PJdw-kfrfu6QBhbZgV0M-6" value="" style="group;sketch=1;curveFitting=1;jiggle=2;" parent="1" vertex="1" connectable="0">
          <mxGeometry x="80" y="680" width="360" height="180" as="geometry" />
        </mxCell>
        <mxCell id="PJdw-kfrfu6QBhbZgV0M-7" value="&lt;font style=&quot;font-size: 18px;&quot;&gt;UIWindowsController&lt;br&gt;&lt;/font&gt;" style="rounded=0;whiteSpace=wrap;html=1;sketch=1;curveFitting=1;jiggle=2;" parent="PJdw-kfrfu6QBhbZgV0M-6" vertex="1">
          <mxGeometry width="360" height="30" as="geometry" />
        </mxCell>
        <mxCell id="PJdw-kfrfu6QBhbZgV0M-8" value="" style="text;html=1;strokeColor=#82b366;fillColor=#d5e8d4;align=left;verticalAlign=top;whiteSpace=wrap;rounded=0;labelBackgroundColor=none;sketch=1;curveFitting=1;jiggle=2;" parent="PJdw-kfrfu6QBhbZgV0M-6" vertex="1">
          <mxGeometry y="30" width="360" height="150" as="geometry" />
        </mxCell>
        <mxCell id="PJdw-kfrfu6QBhbZgV0M-9" value="" style="group;sketch=1;curveFitting=1;jiggle=2;" parent="1" vertex="1" connectable="0">
          <mxGeometry x="600" y="680" width="360" height="180" as="geometry" />
        </mxCell>
        <mxCell id="PJdw-kfrfu6QBhbZgV0M-10" value="&lt;font style=&quot;font-size: 18px;&quot;&gt;UIElementController&lt;br&gt;&lt;/font&gt;" style="rounded=0;whiteSpace=wrap;html=1;sketch=1;curveFitting=1;jiggle=2;" parent="PJdw-kfrfu6QBhbZgV0M-9" vertex="1">
          <mxGeometry width="360" height="30" as="geometry" />
        </mxCell>
        <mxCell id="PJdw-kfrfu6QBhbZgV0M-11" value="" style="text;html=1;strokeColor=#82b366;fillColor=#d5e8d4;align=left;verticalAlign=top;whiteSpace=wrap;rounded=0;labelBackgroundColor=none;sketch=1;curveFitting=1;jiggle=2;" parent="PJdw-kfrfu6QBhbZgV0M-9" vertex="1">
          <mxGeometry y="30" width="360" height="150" as="geometry" />
        </mxCell>
        <mxCell id="6OL6psm6zyIdl8JdU4K_-2" style="edgeStyle=orthogonalEdgeStyle;rounded=0;sketch=1;hachureGap=4;jiggle=2;curveFitting=1;orthogonalLoop=1;jettySize=auto;html=1;entryX=0.5;entryY=0;entryDx=0;entryDy=0;fontFamily=Architects Daughter;fontSource=https%3A%2F%2Ffonts.googleapis.com%2Fcss%3Ffamily%3DArchitects%2BDaughter;fontSize=16;" edge="1" parent="1" source="PJdw-kfrfu6QBhbZgV0M-5" target="PJdw-kfrfu6QBhbZgV0M-7">
          <mxGeometry relative="1" as="geometry" />
        </mxCell>
        <mxCell id="6OL6psm6zyIdl8JdU4K_-3" style="edgeStyle=orthogonalEdgeStyle;rounded=0;sketch=1;hachureGap=4;jiggle=2;curveFitting=1;orthogonalLoop=1;jettySize=auto;html=1;fontFamily=Architects Daughter;fontSource=https%3A%2F%2Ffonts.googleapis.com%2Fcss%3Ffamily%3DArchitects%2BDaughter;fontSize=16;" edge="1" parent="1" source="PJdw-kfrfu6QBhbZgV0M-5" target="PJdw-kfrfu6QBhbZgV0M-10">
          <mxGeometry relative="1" as="geometry" />
        </mxCell>
        <mxCell id="6OL6psm6zyIdl8JdU4K_-4" value="" style="group;sketch=1;curveFitting=1;jiggle=2;" vertex="1" connectable="0" parent="1">
          <mxGeometry x="80" y="1020" width="360" height="180" as="geometry" />
        </mxCell>
        <mxCell id="6OL6psm6zyIdl8JdU4K_-5" value="&lt;font style=&quot;font-size: 18px;&quot;&gt;UIWindowsBase&lt;br&gt;&lt;/font&gt;" style="rounded=0;whiteSpace=wrap;html=1;sketch=1;curveFitting=1;jiggle=2;" vertex="1" parent="6OL6psm6zyIdl8JdU4K_-4">
          <mxGeometry width="360" height="30" as="geometry" />
        </mxCell>
        <mxCell id="6OL6psm6zyIdl8JdU4K_-6" value="" style="text;html=1;strokeColor=#82b366;fillColor=#d5e8d4;align=left;verticalAlign=top;whiteSpace=wrap;rounded=0;labelBackgroundColor=none;sketch=1;curveFitting=1;jiggle=2;" vertex="1" parent="6OL6psm6zyIdl8JdU4K_-4">
          <mxGeometry y="30" width="360" height="150" as="geometry" />
        </mxCell>
        <mxCell id="6OL6psm6zyIdl8JdU4K_-7" value="" style="group;sketch=1;curveFitting=1;jiggle=2;" vertex="1" connectable="0" parent="1">
          <mxGeometry x="600" y="1020" width="360" height="180" as="geometry" />
        </mxCell>
        <mxCell id="6OL6psm6zyIdl8JdU4K_-8" value="&lt;font style=&quot;font-size: 18px;&quot;&gt;UIElementBase&lt;br&gt;&lt;/font&gt;" style="rounded=0;whiteSpace=wrap;html=1;sketch=1;curveFitting=1;jiggle=2;" vertex="1" parent="6OL6psm6zyIdl8JdU4K_-7">
          <mxGeometry width="360" height="30" as="geometry" />
        </mxCell>
        <mxCell id="6OL6psm6zyIdl8JdU4K_-9" value="" style="text;html=1;strokeColor=#82b366;fillColor=#d5e8d4;align=left;verticalAlign=top;whiteSpace=wrap;rounded=0;labelBackgroundColor=none;sketch=1;curveFitting=1;jiggle=2;" vertex="1" parent="6OL6psm6zyIdl8JdU4K_-7">
          <mxGeometry y="30" width="360" height="150" as="geometry" />
        </mxCell>
        <mxCell id="6OL6psm6zyIdl8JdU4K_-10" style="edgeStyle=orthogonalEdgeStyle;rounded=0;sketch=1;hachureGap=4;jiggle=2;curveFitting=1;orthogonalLoop=1;jettySize=auto;html=1;fontFamily=Architects Daughter;fontSource=https%3A%2F%2Ffonts.googleapis.com%2Fcss%3Ffamily%3DArchitects%2BDaughter;fontSize=16;" edge="1" parent="1" source="PJdw-kfrfu6QBhbZgV0M-8" target="6OL6psm6zyIdl8JdU4K_-5">
          <mxGeometry relative="1" as="geometry" />
        </mxCell>
        <mxCell id="6OL6psm6zyIdl8JdU4K_-12" style="edgeStyle=orthogonalEdgeStyle;rounded=0;sketch=1;hachureGap=4;jiggle=2;curveFitting=1;orthogonalLoop=1;jettySize=auto;html=1;fontFamily=Architects Daughter;fontSource=https%3A%2F%2Ffonts.googleapis.com%2Fcss%3Ffamily%3DArchitects%2BDaughter;fontSize=16;" edge="1" parent="1" source="PJdw-kfrfu6QBhbZgV0M-11" target="6OL6psm6zyIdl8JdU4K_-8">
          <mxGeometry relative="1" as="geometry" />
        </mxCell>
        <mxCell id="6OL6psm6zyIdl8JdU4K_-13" value="" style="group;sketch=1;curveFitting=1;jiggle=2;" vertex="1" connectable="0" parent="1">
          <mxGeometry x="350" y="1320" width="360" height="180" as="geometry" />
        </mxCell>
        <mxCell id="6OL6psm6zyIdl8JdU4K_-14" value="&lt;font style=&quot;font-size: 18px;&quot;&gt;UIXXXBase&lt;br&gt;&lt;/font&gt;" style="rounded=0;whiteSpace=wrap;html=1;sketch=1;curveFitting=1;jiggle=2;" vertex="1" parent="6OL6psm6zyIdl8JdU4K_-13">
          <mxGeometry width="360" height="30" as="geometry" />
        </mxCell>
        <mxCell id="6OL6psm6zyIdl8JdU4K_-15" value="" style="text;html=1;strokeColor=#82b366;fillColor=#d5e8d4;align=left;verticalAlign=top;whiteSpace=wrap;rounded=0;labelBackgroundColor=none;sketch=1;curveFitting=1;jiggle=2;" vertex="1" parent="6OL6psm6zyIdl8JdU4K_-13">
          <mxGeometry y="30" width="360" height="150" as="geometry" />
        </mxCell>
        <mxCell id="6OL6psm6zyIdl8JdU4K_-19" style="edgeStyle=orthogonalEdgeStyle;rounded=0;sketch=1;hachureGap=4;jiggle=2;curveFitting=1;orthogonalLoop=1;jettySize=auto;html=1;fontFamily=Architects Daughter;fontSource=https%3A%2F%2Ffonts.googleapis.com%2Fcss%3Ffamily%3DArchitects%2BDaughter;fontSize=16;" edge="1" parent="1" source="6OL6psm6zyIdl8JdU4K_-6" target="6OL6psm6zyIdl8JdU4K_-14">
          <mxGeometry relative="1" as="geometry" />
        </mxCell>
        <mxCell id="6OL6psm6zyIdl8JdU4K_-20" style="edgeStyle=orthogonalEdgeStyle;rounded=0;sketch=1;hachureGap=4;jiggle=2;curveFitting=1;orthogonalLoop=1;jettySize=auto;html=1;entryX=0.5;entryY=0;entryDx=0;entryDy=0;fontFamily=Architects Daughter;fontSource=https%3A%2F%2Ffonts.googleapis.com%2Fcss%3Ffamily%3DArchitects%2BDaughter;fontSize=16;" edge="1" parent="1" source="6OL6psm6zyIdl8JdU4K_-9" target="6OL6psm6zyIdl8JdU4K_-14">
          <mxGeometry relative="1" as="geometry" />
        </mxCell>
        <mxCell id="6OL6psm6zyIdl8JdU4K_-21" value="" style="group;sketch=1;curveFitting=1;jiggle=2;" vertex="1" connectable="0" parent="1">
          <mxGeometry x="350" y="1580" width="360" height="180" as="geometry" />
        </mxCell>
        <mxCell id="6OL6psm6zyIdl8JdU4K_-22" value="&lt;font style=&quot;font-size: 18px;&quot;&gt;XXX&lt;br&gt;&lt;/font&gt;" style="rounded=0;whiteSpace=wrap;html=1;sketch=1;curveFitting=1;jiggle=2;" vertex="1" parent="6OL6psm6zyIdl8JdU4K_-21">
          <mxGeometry width="360" height="30" as="geometry" />
        </mxCell>
        <mxCell id="6OL6psm6zyIdl8JdU4K_-23" value="" style="text;html=1;strokeColor=#82b366;fillColor=#d5e8d4;align=left;verticalAlign=top;whiteSpace=wrap;rounded=0;labelBackgroundColor=none;sketch=1;curveFitting=1;jiggle=2;" vertex="1" parent="6OL6psm6zyIdl8JdU4K_-21">
          <mxGeometry y="30" width="360" height="150" as="geometry" />
        </mxCell>
        <mxCell id="6OL6psm6zyIdl8JdU4K_-24" style="edgeStyle=orthogonalEdgeStyle;rounded=0;sketch=1;hachureGap=4;jiggle=2;curveFitting=1;orthogonalLoop=1;jettySize=auto;html=1;fontFamily=Architects Daughter;fontSource=https%3A%2F%2Ffonts.googleapis.com%2Fcss%3Ffamily%3DArchitects%2BDaughter;fontSize=16;" edge="1" parent="1" source="6OL6psm6zyIdl8JdU4K_-15" target="6OL6psm6zyIdl8JdU4K_-22">
          <mxGeometry relative="1" as="geometry" />
        </mxCell>
      </root>
    </mxGraphModel>
  </diagram>
</mxfile>
